<?xml version="1.0" encoding="UTF-8"?>
<svg xmlns="http://www.w3.org/2000/svg" xmlns:xlink="http://www.w3.org/1999/xlink" viewBox="0 0 50 50" width="50px" height="50px">
<g id="surface4001">
<path style=" stroke:none;fill-rule:nonzero;fill:rgb(0%,0%,0%);fill-opacity:1;" d="M 8 3.007812 C 4.53125 3.007812 2.007812 5.089844 2.007812 7.949219 C 2.007812 10.820312 4.589844 12.988281 8 12.988281 C 11.46875 12.988281 13.988281 10.871094 13.988281 7.890625 C 13.832031 5.019531 11.359375 3.007812 8 3.007812 Z M 3 15 C 2.449219 15 2 15.449219 2 16 L 2 45 C 2 45.550781 2.449219 46 3 46 L 13 46 C 13.550781 46 14 45.550781 14 45 L 14 16 C 14 15.449219 13.550781 15 13 15 Z M 18 15 C 17.449219 15 17 15.449219 17 16 L 17 45 C 17 45.550781 17.449219 46 18 46 L 27 46 C 27.550781 46 28 45.550781 28 45 L 28 29.5 C 28 27.128906 29.820312 25.199219 32.140625 25.019531 C 32.261719 25 32.378906 25 32.5 25 C 32.621094 25 32.738281 25 32.859375 25.019531 C 35.179688 25.199219 37 27.128906 37 29.5 L 37 45 C 37 45.550781 37.449219 46 38 46 L 47 46 C 47.550781 46 48 45.550781 48 45 L 48 28 C 48 21.53125 44.527344 15 36.789062 15 C 33.269531 15 30.609375 16.359375 29 17.488281 L 29 16 C 29 15.449219 28.550781 15 28 15 Z M 18 15 "/>
<path style=" stroke:none;fill-rule:nonzero;fill:rgb(80.000001%,80.000001%,80.000001%);fill-opacity:1;" d="M 21.773438 22.65625 L 21.773438 30.027344 L 20.515625 30.027344 L 20.515625 22.65625 Z M 20.410156 20.699219 C 20.410156 20.496094 20.472656 20.324219 20.597656 20.183594 C 20.722656 20.042969 20.90625 19.972656 21.152344 19.972656 C 21.398438 19.972656 21.585938 20.042969 21.710938 20.183594 C 21.839844 20.324219 21.902344 20.496094 21.902344 20.699219 C 21.902344 20.90625 21.839844 21.074219 21.710938 21.210938 C 21.585938 21.347656 21.398438 21.417969 21.152344 21.417969 C 20.90625 21.417969 20.722656 21.347656 20.597656 21.210938 C 20.472656 21.074219 20.410156 20.90625 20.410156 20.699219 Z M 23.789062 22.65625 L 24.984375 22.65625 L 25.023438 23.582031 C 25.585938 22.875 26.324219 22.519531 27.234375 22.519531 C 28.789062 22.519531 29.574219 23.398438 29.589844 25.15625 L 29.589844 30.027344 L 28.328125 30.027344 L 28.328125 25.148438 C 28.324219 24.617188 28.203125 24.226562 27.964844 23.96875 C 27.726562 23.714844 27.351562 23.589844 26.847656 23.589844 C 26.441406 23.589844 26.082031 23.699219 25.773438 23.917969 C 25.464844 24.132812 25.226562 24.421875 25.050781 24.773438 L 25.050781 30.027344 L 23.789062 30.027344 Z M 23.789062 22.65625 "/>
</g>
</svg>
